<?xml version="1.0" encoding="utf-8"?>
<!-- Generator: Adobe Illustrator 27.0.0, SVG Export Plug-In . SVG Version: 6.00 Build 0)  -->
<svg version="1.1" id="Layer_1" xmlns="http://www.w3.org/2000/svg" xmlns:xlink="http://www.w3.org/1999/xlink" x="0px" y="0px"
	 viewBox="0 0 1024 1024" style="enable-background:new 0 0 1024 1024;" xml:space="preserve">
<style type="text/css">
	.st0{display:none;fill:#F9FAFA;}
	.st1{fill:#FFFFFF;}
	.st2{fill:#2360E5;}
	.st3{display:none;}
</style>
<g id="Layer_1_00000169555375543566195910000010896570800643635339_">
	<g>
		<path class="st0" d="M9.7,530V46.4h483.6h483.6V530v483.6H493.2H9.7L9.7,530L9.7,530z M542.8,894.3
			c125.6-18.8,230.7-102,280.8-222.1c13.7-33,22.1-64.7,27.7-105.3c2-14.5,1.7-71.7-0.5-88.3c-11.9-91.2-54.3-174-119.4-233
			c-53.8-48.8-114.3-77.9-185.8-89.5c-18.4-3-39-4.2-62.9-3.5c-55.4,1.5-107.1,15.4-157.4,42.5c-56.6,30.5-109,81.8-141.3,138.2
			c-60.2,105.1-67.7,230.9-20.6,341.2c13.7,31.9,26.7,54.3,48.8,83.3c57,74.9,145.4,126.1,237,137.3c6.7,0.9,13.6,1.7,15.1,1.9
			c1.5,0.2,16.2,0.3,32.6,0.1C523.1,896.7,528.7,896.4,542.8,894.3z M699.5,745.3c-5.4-2.7-34.8-26.4-68.7-55.4
			c-10-8.6-16.2-13.3-17-12.8c-0.7,0.4-3.9,3-7.2,5.9c-20.1,17-50.1,30.2-76.3,33.7c-30,4-57.9-0.9-85.8-14.6
			c-45.1-22.4-76-65.7-81.8-115c-1.6-13.2-0.6-38.2,2-50.1c1.8-8.2,4.6-17.9,7.1-24c0.6-1.4-1.1-1.6-18.4-1.9l-19.1-0.3l-2.3-2.6
			c-2.3-2.6-2.3-3-2.3-20c0-9.5,0.4-18.4,0.9-19.7c0.5-1.3,2.3-3.3,4-4.3c3-1.8,4.8-1.9,62.7-1.9h59.6l3.9-2.6
			c2.1-1.4,24-22.4,48.6-46.7c34.5-33.9,45.4-44.2,47.8-44.7c2.6-0.6,3-1,3-3.9c0-13.7-8.3-28.5-19.4-34.3l-4.7-2.6h-45.8h-45.8
			l-5,2.7c-9.6,5.4-16.2,14.5-19.6,27.4c-2.6,10-7.6,9,42.9,9c31.2,0,44.5,0.3,45,1c0.4,0.6-9,10.6-21.9,23.4
			c-19.6,19.5-23.1,22.7-27.2,24c-4.2,1.4-12.1,1.6-77.4,1.6h-72.7l-4.1,2.4c-2.2,1.3-5,4-6.2,5.9c-2.1,3.4-2.3,4.6-2.9,30
			c-0.4,14.5-0.7,58.7-0.5,98.2c0.3,67,0.4,72,1.9,74.4c1,1.6,2.6,2.6,4,2.6c2.4,0,12.4-8.2,41.7-34.2c2.7-2.5,5.4-4.5,5.8-4.5
			s1.4,4.1,2.4,9c5.2,28.2,20.2,57.5,40.6,79.4c3,3.2,5.5,6,5.5,6.4c0,0.9-96.8,0.7-104.7-0.3c-19.2-2.2-36-17.9-41.2-38.3
			c-1.2-4.9-1.4-20.8-1.4-120.3c0-126.1-0.2-120.5,5.7-132.3c5-10,14.5-19.3,24.4-23.7c9.4-4.3,14.3-4.6,57.8-4.6h41.1l2.6-11.7
			c4.5-20.7,10.7-33.7,21.5-45.2c10.5-11.1,21.4-17.4,35.7-20.1c10.8-2.1,96.6-2,106.7,0.2c18.6,3.9,34.5,16.8,43.6,35.6
			c4.7,9.6,9.7,26.1,11,36.1l0.7,5.1l41.7,0.4c38.9,0.3,42,0.5,46.9,2.3c12.3,4.4,22.6,13.3,28.3,24.5c6.8,13.1,6.5,5.9,6.5,135
			c0,102-0.2,115.9-1.4,115.4c-1.6-0.7-34.1-27.8-36.6-30.6c-1.6-1.8-1.6-2.2-0.1-7.9c5-19.2,7.4-49.3,5.2-67.9
			c-4.1-35.4-17.2-64.2-39.5-86.5c-8.5-8.6-21.2-17.9-30.9-22.8c-12.2-6.1-29.1-10.4-37.3-9.2c-9.2,1.3-11.8,3.6-55.5,47.1
			c-23.2,23.1-43.2,42.2-44.9,43c-2.5,1.1-9.5,1.5-33.8,1.9c-16.9,0.3-31.4,0.9-32.2,1.2c-3.3,1.6-8.6,14.1-12.3,29
			c-2,7.8-2.3,11.1-2.3,26c0,18.2,1.2,25.3,6.7,40c10.9,29.1,36.6,53.7,66.8,63.8c13.7,4.6,19.9,5.6,36,5.5
			c13.8,0,16.1-0.3,26.1-2.9c6-1.6,14.6-4.6,19.1-6.7c23-10.6,43.1-30.6,54-53.6c3-6.3,8-21.5,8-24.4c0-1.1,31.6-31.2,35.9-34.2
			c1.6-1.1,1.8-0.9,2.6,3.3c0.4,2.5,0.8,10.9,0.7,18.7c-0.1,16.1-2,27-7.5,43.3c-1.8,5.3-3,9.8-2.8,10.2
			c0.2,0.4,19.7,16.6,43.4,36.2c40,33.2,43.2,36,45.5,40.9c5.4,11.1,3.7,23.2-4.4,31.8c-6.5,6.9-11.2,9.1-20,9.1
			C706.2,748.2,704.2,747.7,699.5,745.3z M505,639.6c-2.1-0.9-6.5-4.7-9.9-8.3c-3.4-3.7-16.8-17.7-29.9-31.3
			c-25.3-26.3-26-27.1-24.4-34.4c1-4.6,19.4-22.9,24.7-24.4c6.9-2.1,8.9-0.8,26.8,18c8.9,9.4,16.8,17,17.4,17s12.2-11.3,25.6-25.3
			c57.2-59.1,70.2-72.1,74.2-73.9c8.4-3.8,12.8-2.2,23.9,9.2c11.3,11.6,13.9,17.7,10.1,24.5c-2.5,4.5-122.9,126.8-126.9,128.9
			C512.3,641.9,509.9,641.9,505,639.6z"/>
		<ellipse class="st1" cx="525.9" cy="511.2" rx="437" ry="453.3"/>
		<path class="st2" d="M589.5,980.8c-17.9,2.6-25,3.1-58.2,3.4c-20.8,0.2-39.4,0.2-41.4-0.1c-2-0.3-10.6-1.3-19.2-2.4
			C354.3,967.5,242,902.4,169.7,807.2c-28.1-36.8-44.7-65.3-62-105.8c-60.1-140.1-50.3-300,26.1-433.5
			c41-71.7,107.6-136.9,179.6-175.6c63.8-34.4,129.5-52,200-53.9c30.3-0.9,56.6,0.7,79.9,4.4C684,57.4,760.8,94.5,829.3,156.5
			c82.7,74.9,136.6,180,151.7,296c2.7,21.2,3.1,93.8,0.6,112.2c-7.1,51.7-17.8,92-35.2,133.8C882.7,851.3,749.1,956.9,589.5,980.8z
			 M788.7,791.6c6,3,8.5,3.6,16.1,3.6c11.1,0,17.1-2.7,25.4-11.5c10.3-10.9,12.5-26.4,5.6-40.5c-3.1-6.3-7-9.8-57.9-51.9
			c-30-24.8-54.8-45.5-55.1-46c-0.3-0.5,1.3-6.2,3.6-12.9c6.9-20.6,9.4-34.7,9.4-55c0.1-9.9-0.4-20.6-0.9-23.7
			c-0.9-5.3-1.1-5.6-3.2-4.2c-5.5,3.9-45.6,42.1-45.6,43.4c0,3.6-6.3,23-10.1,31c-13.9,29.3-39.6,54.7-68.7,68.2
			c-5.7,2.6-16.5,6.4-24.3,8.5c-12.8,3.4-15.6,3.7-33.2,3.8c-20.4,0.1-28.3-1.1-45.8-7c-38.3-12.8-71-44.2-84.8-81.1
			c-7-18.7-8.5-27.8-8.5-50.9c0-18.8,0.4-23,2.8-33c4.7-19,11.4-34.8,15.6-36.8c1-0.5,19.5-1.2,40.9-1.6c30.9-0.5,39.9-1,43-2.5
			c2.2-0.9,27.5-25.2,57-54.6c55.5-55.3,58.9-58.2,70.6-59.9c10.4-1.5,31.9,3.8,47.4,11.6c12.4,6.2,28.4,18.1,39.3,29
			c28.2,28.2,45,64.9,50.2,109.9c2.7,23.5-0.3,61.9-6.6,86.2c-1.9,7.3-1.9,7.7,0.2,10.1c3.2,3.6,44.6,38.1,46.6,38.9
			c1.6,0.6,1.8-17,1.8-146.7c0-8,0-15.6,0-22.9c0-118.5,0-131.6-4.9-142.3c-0.9-2-2-3.9-3.3-6.3c-7.4-14.2-20.4-25.4-36.1-31.1
			c-6.2-2.3-10.2-2.5-59.7-2.8l-53-0.5l-0.9-6.4c-1.6-12.8-7.9-33.6-13.9-45.9c-11.6-23.9-31.8-40.3-55.4-45.2
			c-12.8-2.6-121.9-2.8-135.6-0.2c-18,3.5-32,11.3-45.3,25.5c-13.7,14.6-21.6,31.3-27.3,57.5l-3.2,14.9h-52.2
			c-55.3,0-61.4,0.6-73.4,5.9c-12.6,5.6-24.6,17.4-31,30.1c-1,2-1.9,3.6-2.6,5.3C217,362,217,374.5,217,496.7c0,5.7,0,11.6,0,17.9
			c0,126.6,0.3,146.8,1.8,152.9c6.6,26,28,45.8,52.3,48.6c10.1,1.1,133.1,1.5,133.1,0.4c0-0.4-3.1-4.1-6.9-8.1
			c-26-27.8-45-65-51.6-100.9c-1.1-6.3-2.6-11.4-3-11.4s-3.8,2.6-7.4,5.7c-37.3,33.2-50,43.5-53.1,43.5c-1.9,0-3.7-1.2-5-3.2
			c-2-3-2.2-9.4-2.5-94.5c-0.2-50.2,0.1-106.4,0.7-124.9c0.9-32.2,1-33.8,3.8-38.2c1.5-2.5,5.1-5.9,7.8-7.5l5.1-3h92.4
			c83,0,93-0.2,98.3-2c5.1-1.7,9.7-5.9,34.6-30.5c16.5-16.4,28.3-29.1,27.9-29.8c-0.6-0.9-17.6-1.3-57.1-1.3c-6.1,0-11.5,0-16.4,0
			c-29.9,0.1-38.3,0.1-39.7-3c-0.6-1.2,0-2.8,0.8-5.2c0.3-0.9,0.7-2.1,0.9-3.3c4.3-16.3,12.6-28.1,24.8-34.9l6.3-3.5h116.5l6,3.2
			c14,7.4,24.6,26.2,24.6,43.5c0,3.6-0.5,4.2-3.9,4.9c-2.9,0.7-16.9,13.6-60.7,56.8c-31.3,30.8-59,57.4-61.8,59.2l-4.9,3.3h-75.8
			c-73.6,0-75.8,0.1-79.6,2.4c-2.2,1.3-4.4,3.8-5.1,5.5c-0.7,1.7-1.1,13-1.1,25.1c0,21.5,0.1,22.1,2.9,25.4l2.9,3.4l24.2,0.4
			c22,0.4,24.1,0.6,23.4,2.4c-3.2,7.7-6.8,20-9.1,30.5c-3.2,15.1-4.4,46.8-2.5,63.7c7.4,62.6,46.6,117.7,104,146.1
			c35.4,17.6,70.8,23.6,109,18.6c33.3-4.3,71.3-21.2,96.9-42.8c4.3-3.6,8.4-6.9,9.2-7.5c0.9-0.6,8.9,5.5,21.6,16.3
			C744.5,758.1,781.8,788.2,788.7,791.6z M541.5,657.3c6.1,2.8,9.3,2.8,14.7-0.1c5.2-2.6,158.2-158,161.3-163.8
			c4.8-8.8,1.6-16.4-12.8-31.2c-14.1-14.4-19.6-16.4-30.4-11.6c-5.3,2.4-21.7,18.7-94.4,93.9c-17.1,17.7-31.7,32.1-32.5,32.1
			c-0.8,0-10.8-9.7-22.1-21.5c-22.8-23.8-25.3-25.5-34.1-22.9c-6.7,2-30,25.1-31.4,31c-2,9.3-1.2,10.4,31,43.6
			c16.6,17.2,33.7,35.1,38.1,39.8C533.2,651.3,538.9,656.2,541.5,657.3z"/>
	</g>
</g>
<g id="Layer_2_00000116214278742766432090000015150391209262270387_" class="st3">
</g>
</svg>
